<?xml version="1.0" encoding="utf-8"?>
<!-- Generator: Adobe Illustrator 19.2.1, SVG Export Plug-In . SVG Version: 6.00 Build 0)  -->
<svg version="1.1" id="Layer_1" xmlns="http://www.w3.org/2000/svg" xmlns:xlink="http://www.w3.org/1999/xlink" x="0px" y="0px"
	 viewBox="0 0 36.8 37.1" style="enable-background:new 0 0 36.8 37.1;" xml:space="preserve">
<style type="text/css">
	.st0{fill:#0A3859;}
</style>
<g>
	<g>
		<path class="st0" d="M18.4,0C8.3,0,0,8.3,0,18.5c0,10.2,8.3,18.5,18.4,18.5c10.2,0,18.4-8.3,18.4-18.5C36.8,8.3,28.6,0,18.4,0z
			 M18.4,35.1C9.4,35.1,2,27.7,2,18.5C2,9.4,9.4,2,18.4,2c9,0,16.4,7.4,16.4,16.5C34.8,27.7,27.5,35.1,18.4,35.1z"/>
	</g>
	<g>
		<path class="st0" d="M27,24.6c0.8,0.8,0.8,2,0,2.8c-0.4,0.4-0.9,0.6-1.4,0.6c-0.5,0-1-0.2-1.4-0.6l-6.1-6.2L12,27.4
			c-0.4,0.4-0.9,0.6-1.4,0.6c-0.5,0-1-0.2-1.4-0.6c-0.8-0.8-0.8-2,0-2.8l6.1-6.2l-6.1-6.2c-0.8-0.8-0.8-2,0-2.8c0.8-0.8,2-0.8,2.8,0
			l6.1,6.2l6.1-6.2c0.8-0.8,2-0.8,2.8,0c0.8,0.8,0.8,2,0,2.8l-6.1,6.2L27,24.6z"/>
	</g>
</g>
</svg>
