<?xml version="1.0" encoding="utf-8"?>
<!-- Generator: Adobe Illustrator 19.2.1, SVG Export Plug-In . SVG Version: 6.00 Build 0)  -->
<svg version="1.1" id="Layer_1" xmlns="http://www.w3.org/2000/svg" xmlns:xlink="http://www.w3.org/1999/xlink" x="0px" y="0px"
	 viewBox="0 0 124 34.9" style="enable-background:new 0 0 124 34.9;" xml:space="preserve">
<style type="text/css">
	.st0{fill:#0A3859;}
</style>
<g>
	<path class="st0" d="M59.5,22.3v-0.2h0c-0.2-6.3-5.3-11.4-11.6-11.4c-6.4,0-11.7,5.3-11.7,11.7s5.2,11.7,11.7,11.7
		c3.5,0,6.6-1.6,8.8-4v4h2.9V22.6c0,0,0-0.1,0-0.1C59.5,22.4,59.5,22.4,59.5,22.3z M47.8,31.3c-4.8,0-8.8-4-8.8-8.8s3.9-8.8,8.8-8.8
		c4.8,0,8.7,3.9,8.8,8.7v0.2C56.6,27.4,52.6,31.3,47.8,31.3z"/>
	<path class="st0" d="M112.4,10.7c-6.4,0-11.7,5.3-11.7,11.7s5.2,11.7,11.7,11.7c6.4,0,11.7-5.3,11.7-11.7S118.8,10.7,112.4,10.7z
		 M112.4,31.3c-4.8,0-8.8-4-8.8-8.8s3.9-8.8,8.8-8.8c4.8,0,8.8,4,8.8,8.8S117.2,31.3,112.4,31.3z"/>
	<path class="st0" d="M11.7,10.7c-3.5,0-6.7,1.6-8.8,4.1V0H0v34.8h2.9V22.5h0c0-4.9,3.9-8.8,8.8-8.8s8.8,4,8.8,8.8V34h2.9V22.5
		C23.3,16,18.1,10.7,11.7,10.7z"/>
	<rect x="79.2" y="0" class="st0" width="2.9" height="34.8"/>
</g>
</svg>
