<?xml version="1.0" encoding="utf-8"?>
<!-- Generator: Adobe Illustrator 19.2.1, SVG Export Plug-In . SVG Version: 6.00 Build 0)  -->
<svg version="1.1" id="Layer_1" xmlns="http://www.w3.org/2000/svg" xmlns:xlink="http://www.w3.org/1999/xlink" x="0px" y="0px"
	 viewBox="0 0 34.7 26" style="enable-background:new 0 0 34.7 26;" xml:space="preserve">
<style type="text/css">
	.st0{fill:#FFFFFF;}
</style>
<g>
	<path class="st0" d="M32.5,4.3H2.1C1,4.3,0,3.3,0,2.1S1,0,2.1,0h30.4c1.2,0,2.1,1,2.1,2.1S33.7,4.3,32.5,4.3z"/>
</g>
<g>
	<path class="st0" d="M32.5,15.1H2.1C1,15.1,0,14.2,0,13s1-2.1,2.1-2.1h30.4c1.2,0,2.1,1,2.1,2.1S33.7,15.1,32.5,15.1z"/>
</g>
<g>
	<path class="st0" d="M32.5,26H2.1C1,26,0,25,0,23.8s1-2.1,2.1-2.1h30.4c1.2,0,2.1,1,2.1,2.1S33.7,26,32.5,26z"/>
</g>
</svg>
